<?xml version="1.0" encoding="UTF-8" standalone="no"?>
<svg width="26px" height="26px" viewBox="0 0 26 26" version="1.1" xmlns="http://www.w3.org/2000/svg" xmlns:xlink="http://www.w3.org/1999/xlink">
    <!-- Generator: Sketch 3.7.2 (28276) - http://www.bohemiancoding.com/sketch -->
    <title>facebook</title>
    <desc>Created with Sketch.</desc>
    <defs></defs>
    <g id="Page-1" stroke="none" stroke-width="1" fill="none" fill-rule="evenodd">
        <g id="facebook" fill="#000000">
            <path d="M12.9880001,1.00000601 C6.3621492,1.00663186 0.995586591,6.38214531 1.00000272,13.007998 C1.00441886,19.6338507 6.37814225,25.0022057 13.0039961,24.9999993 C19.6298499,24.9977929 24.9999968,19.6258602 25.0000001,13.000006 C25.0000017,9.81532791 23.7340725,6.76126099 21.4810399,4.51047918 C19.2280073,2.25969737 16.1726766,0.996821331 12.9880001,1.00000601 L12.9880001,1.00000601 L12.9880001,1.00000601 Z M15.8330001,9.29000601 L14.0270001,9.29000601 C13.7306651,9.36325142 13.5365569,9.6473122 13.5760001,9.95000601 L13.5760001,11.250006 L15.8340001,11.250006 L15.4930001,13.100006 L13.5760001,13.100006 L13.5760001,18.680006 L11.4450001,18.680006 L11.4450001,13.100006 L9.51200006,13.100006 L9.51200006,11.250006 L11.4450001,11.250006 L11.4450001,10.160006 C11.4002908,9.43837398 11.6494906,8.72935907 12.1358624,8.19438782 C12.6222341,7.65941658 13.3043833,7.34401975 14.0270001,7.32000601 L15.8330001,7.32000601 L15.8330001,9.29000601 L15.8330001,9.29000601 L15.8330001,9.29000601 Z"></path>
        </g>
    </g>
</svg>