<?xml version="1.0" encoding="UTF-8" standalone="no"?>
<svg width="26px" height="26px" viewBox="0 0 26 26" version="1.1" xmlns="http://www.w3.org/2000/svg" xmlns:xlink="http://www.w3.org/1999/xlink">
    <!-- Generator: Sketch 3.7.2 (28276) - http://www.bohemiancoding.com/sketch -->
    <title>google</title>
    <desc>Created with Sketch.</desc>
    <defs></defs>
    <g id="Page-1" stroke="none" stroke-width="1" fill="none" fill-rule="evenodd">
        <g id="google" fill="#000000">
            <path d="M13,1 C6.372583,1 1,6.372583 1,13 C1,19.627417 6.372583,25 13,25 C19.627417,25 25,19.627417 25,13 C25,6.372583 19.627417,1 13,1 L13,1 L13,1 L13,1 Z M12.309,18.15 C11.7181918,18.4142144 11.0781965,18.5505286 10.431,18.55 L10.269,18.55 C9.78,18.55 7.341,18.44 7.341,16.22 C7.341,14.04 9.997,13.86 10.811,13.86 L10.832,13.86 C10.5538603,13.5017378 10.4207049,13.0519369 10.459,12.6 C10.4015013,12.6093361 10.3431897,12.6126874 10.285,12.61 C9.79205906,12.616122 9.30719622,12.4845164 8.885,12.23 C8.2338034,11.7727646 7.87649331,11.0024696 7.948,10.21 C7.948,7.55 10.856,7.44 10.884,7.44 L13.784,7.44 L13.784,7.5 C13.784,7.83 13.2,7.89 12.803,7.94 C12.6395564,7.95494962 12.477859,7.98507957 12.32,8.03 C12.9837761,8.42840006 13.3259054,9.20069181 13.175,9.96 C13.2184595,10.7187039 12.90608,11.4543668 12.33,11.95 C12.0826094,12.1004826 11.9085058,12.3466165 11.849,12.63 C11.9559887,12.9628638 12.1783445,13.2465713 12.476,13.43 C13.2324182,13.9457619 13.7136155,14.7771885 13.784,15.69 C13.8503094,16.7363177 13.2639063,17.7149823 12.31,18.15 L12.309,18.15 L12.309,18.15 L12.309,18.15 Z M18.624,13 L16.749,13 L16.749,14.87 L15.499,14.87 L15.499,13 L13.625,13 L13.625,11.75 L15.499,11.75 L15.499,9.87 L16.749,9.87 L16.749,11.75 L18.624,11.75 L18.624,13 L18.624,13 L18.624,13 L18.624,13 Z M10.779,14.43 C10.714,14.43 10.649,14.44 10.579,14.44 C10.0474244,14.4701062 9.5413651,14.6778828 9.142,15.03 C8.794675,15.3175546 8.59947144,15.7492903 8.613,16.2 C8.67,17.09 9.623,17.61 10.782,17.53 C11.4009441,17.6387212 12.0252464,17.3688631 12.3701162,16.8435281 C12.7149861,16.3181931 12.7143279,15.6380634 12.3684419,15.1133969 C12.0225559,14.5887303 11.3977325,14.3200811 10.779,14.43 L10.779,14.43 L10.779,14.43 L10.779,14.43 Z M11.872,9.6 C11.8087016,8.8016004 11.1251955,8.19629763 10.325,8.23 C10.2430719,8.22992709 10.1614504,8.24000383 10.082,8.26 C9.7257118,8.38085358 9.45116034,8.66847891 9.347,9.03 C9.19885398,9.46284981 9.18837404,9.9309538 9.317,10.37 C9.43752703,11.1379673 10.032514,11.744605 10.798,11.88 C10.8807757,11.8817956 10.9631673,11.8682332 11.041,11.84 C11.8450326,11.4112916 12.2018874,10.4493725 11.872,9.6 L11.872,9.6 L11.872,9.6 L11.872,9.6 Z" id="google_"></path>
        </g>
    </g>
</svg>