<?xml version="1.0" encoding="UTF-8" standalone="no"?>
<svg width="26px" height="26px" viewBox="0 0 26 26" version="1.1" xmlns="http://www.w3.org/2000/svg" xmlns:xlink="http://www.w3.org/1999/xlink">
    <!-- Generator: Sketch 3.8.3 (29802) - http://www.bohemiancoding.com/sketch -->
    <title>linkedin</title>
    <desc>Created with Sketch.</desc>
    <defs></defs>
    <g id="Page-1" stroke="none" stroke-width="1" fill="none" fill-rule="evenodd">
        <g id="linkedin" fill="#000000">
            <path d="M13.0031707,1.00000038 C8.14896788,0.998788757 3.77216124,3.92222425 1.91416521,8.40676856 C0.0561691719,12.8913128 1.08299911,18.0535345 4.51572469,21.4856886 C7.94845025,24.9178427 13.1108427,25.943813 17.5950775,24.0850702 C22.0793123,22.2263275 25.0020189,17.849034 24.999999,12.9948314 C24.9983446,6.37017452 19.6278276,1.00055163 13.0031707,1.00000038 Z M10.4626543,17.9798291 L8.18093804,17.9798291 L8.18093804,10.6457753 L10.4626543,10.6457753 L10.4626543,17.9798291 L10.4626543,17.9798291 Z M9.3223965,9.64383248 C8.5902398,9.64383248 8,9.05155157 8,8.32179617 C8,7.59216084 8.59035987,7 9.3223965,7 C10.0515516,7 10.6434723,7.59228091 10.6434723,8.32179617 C10.6434723,9.05155157 10.0515516,9.64383248 9.3223965,9.64383248 Z M19,17.9798291 L16.7208051,17.9798291 L16.7208051,14.4132967 C16.7208051,13.5627558 16.7061572,12.4688431 15.5364834,12.4688431 C14.3503607,12.4688431 14.1693026,13.3956253 14.1693026,14.3524237 L14.1693026,17.9799491 L11.8926291,17.9799491 L11.8926291,10.6457753 L14.0775729,10.6457753 L14.0775729,11.6484386 L14.1089099,11.6484386 C14.4127946,11.0718862 15.1565976,10.4638768 16.2655184,10.4638768 C18.5735289,10.4638768 19,11.9824596 19,13.9577698 L19,17.9798291 Z" id="Combined-Shape"></path>
        </g>
    </g>
</svg>