<?xml version="1.0" encoding="UTF-8" standalone="no"?>
<svg width="26px" height="26px" viewBox="0 0 26 26" version="1.1" xmlns="http://www.w3.org/2000/svg" xmlns:xlink="http://www.w3.org/1999/xlink">
    <!-- Generator: Sketch 3.7.2 (28276) - http://www.bohemiancoding.com/sketch -->
    <title>pinterest</title>
    <desc>Created with Sketch.</desc>
    <defs></defs>
    <g id="Page-1" stroke="none" stroke-width="1" fill="none" fill-rule="evenodd">
        <g id="pinterest" fill="#000000">
            <path d="M13.0031707,1.00000038 C8.14896788,0.998788761 3.77216124,3.92222425 1.91416521,8.40676856 C0.0561691719,12.8913128 1.08299911,18.0535345 4.51572469,21.4856886 C7.94845025,24.9178427 13.1108427,25.943813 17.5950775,24.0850702 C22.0793123,22.2263275 25.0020189,17.849034 24.999999,12.9948314 C24.9983446,6.37017452 19.6278276,1.00055163 13.0031707,1.00000038 L13.0031707,1.00000038 L13.0031707,1.00000038 L13.0031707,1.00000038 Z M13.8241324,15.8412318 C13.1935815,15.7359216 12.6052881,15.4556172 12.1262796,15.0322549 C11.7956977,16.7700572 11.3912092,18.4379479 10.1907274,19.3168365 C9.82019598,16.6801709 10.7330416,14.712659 11.1585035,12.6153114 C10.4344192,11.3968523 11.2443949,8.94994668 12.7714637,9.54918887 C14.6500879,10.2982416 11.1445212,14.0834547 13.4975455,14.5528611 C15.9544384,15.0422422 16.958169,10.2882542 15.4350951,8.74021192 C13.2378738,6.51302847 9.02719884,8.69027507 9.54254711,11.8862334 C9.66838797,12.6752356 10.4763662,12.9049451 9.86513915,13.983581 C8.45692004,13.6739726 8.03545305,12.5653745 8.09038358,11.0772564 C8.27056098,8.78076148 10.0731597,6.94489824 12.3659765,6.72276323 C15.0196206,6.43312951 17.5084731,7.70152547 17.8530373,10.1983679 C18.2445422,13.0148062 16.6555517,16.0609539 13.8241324,15.8412318 L13.8241324,15.8412318 L13.8241324,15.8412318 L13.8241324,15.8412318 Z"></path>
        </g>
    </g>
</svg>