<?xml version="1.0" encoding="UTF-8" standalone="no"?>
<svg width="26px" height="26px" viewBox="0 0 26 26" version="1.1" xmlns="http://www.w3.org/2000/svg" xmlns:xlink="http://www.w3.org/1999/xlink">
    <!-- Generator: Sketch 3.7.2 (28276) - http://www.bohemiancoding.com/sketch -->
    <title>twitter</title>
    <desc>Created with Sketch.</desc>
    <defs></defs>
    <g id="Page-1" stroke="none" stroke-width="1" fill="none" fill-rule="evenodd">
        <g id="twitter" fill="#000000">
            <path d="M13.0031707,1.00000038 C8.14896788,0.998788757 3.77216124,3.92222425 1.91416521,8.40676856 C0.0561691719,12.8913128 1.08299911,18.0535345 4.51572469,21.4856886 C7.94845025,24.9178427 13.1108427,25.943813 17.5950775,24.0850702 C22.0793123,22.2263275 25.0020189,17.849034 24.999999,12.9948314 C24.9983446,6.37017452 19.6278276,1.00055163 13.0031707,1.00000038 L13.0031707,1.00000038 L13.0031707,1.00000038 L13.0031707,1.00000038 Z M17.8829994,10.8275722 C17.8829994,10.9274459 17.8899906,11.037307 17.8899906,11.1371807 C17.8896822,13.5932246 16.5500011,15.8536171 14.395666,17.0330204 C12.241331,18.2124237 9.61528076,18.1230939 7.54607194,16.8000193 C7.73315776,16.8201451 7.92119442,16.8301471 8.10935958,16.8299814 C9.17449381,16.8318867 10.2088386,16.4727881 11.0436488,15.8112697 C10.0336014,15.7927349 9.14684364,15.1346885 8.83644008,14.1733411 C8.9828209,14.2018859 9.13175319,14.215273 9.28087803,14.2132905 C9.49108015,14.2173477 9.70073386,14.1904259 9.90309115,14.1333916 C8.79937199,13.9116633 8.00532686,12.9420924 8.00549094,11.8163218 L8.00549094,11.7863597 C8.33245538,11.972394 8.70010502,12.075281 9.07613695,12.0859808 C8.03839357,11.3913172 7.7184579,10.0101741 8.3450615,8.92997194 C9.54565724,10.4049147 11.3154863,11.3014442 13.2149029,11.3968523 C13.173354,11.2201188 13.1529036,11.0390828 13.1539799,10.8575343 C13.1589998,9.89019952 13.7516543,9.0230885 14.6511117,8.66708534 C15.550569,8.31108219 16.5761228,8.53771006 17.2418103,9.23958041 C17.7706753,9.13905773 18.2777573,8.94636653 18.7399157,8.67030033 C18.5646965,9.21842166 18.1953296,9.68368197 17.7012293,9.97864577 C18.1685932,9.91894942 18.6253916,9.79458195 19.0585128,9.60911309 C18.7423164,10.0819915 18.3442327,10.4946186 17.8829994,10.8275722 L17.8829994,10.8275722 L17.8829994,10.8275722 L17.8829994,10.8275722 Z"></path>
        </g>
    </g>
</svg>