<?xml version="1.0" encoding="UTF-8" standalone="no"?>
<svg width="26px" height="26px" viewBox="0 0 26 26" version="1.1" xmlns="http://www.w3.org/2000/svg" xmlns:xlink="http://www.w3.org/1999/xlink">
    <!-- Generator: Sketch 3.8.3 (29802) - http://www.bohemiancoding.com/sketch -->
    <title>youtube</title>
    <desc>Created with Sketch.</desc>
    <defs></defs>
    <g id="Page-1" stroke="none" stroke-width="1" fill="none" fill-rule="evenodd">
        <g id="youtube" fill="#000000">
            <path d="M13.0031707,1.00000038 C8.14896788,0.998788761 3.77216124,3.92222425 1.91416521,8.40676856 C0.0561691719,12.8913128 1.08299911,18.0535345 4.51572469,21.4856886 C7.94845025,24.9178427 13.1108427,25.943813 17.5950775,24.0850702 C22.0793123,22.2263275 25.0020189,17.849034 24.999999,12.9948314 C24.9983446,6.37017452 19.6278276,1.00055163 13.0031707,1.00000038 Z M19.860175,10.12415 C19.860175,10.12415 19.7235,9.159375 19.303675,8.734825 C18.77115,8.1771 18.1744,8.1743 17.900875,8.14175 C15.94245,8 13.002975,8 13.002975,8 L12.996675,8 C12.996675,8 10.05755,8 8.098775,8.14175 C7.825075,8.1743 7.228675,8.176925 6.69615,8.734825 C6.276325,9.159375 6.13965,10.12415 6.13965,10.12415 C6.13965,10.12415 6,11.2571 6,12.390225 L6,13.45265 C6,14.585075 6.139825,15.718375 6.139825,15.718375 C6.139825,15.718375 6.2765,16.682625 6.696325,17.107525 C7.229025,17.6656 7.9285,17.647925 8.239825,17.706375 C9.36,17.814 13.000175,17.84725 13.000175,17.84725 C13.000175,17.84725 15.941925,17.842875 17.90105,17.7013 C18.17475,17.6684 18.771675,17.665775 19.30385,17.107875 C19.72385,16.682625 19.8607,15.71855 19.8607,15.71855 C19.8607,15.71855 20,14.58525 20,13.452475 L20,12.39005 C20,11.2571 19.860175,10.12415 19.860175,10.12415 Z M11.377575,14.92335 L11.37705,10.621675 L15.513525,12.779775 L11.377575,14.92335 Z" id="Combined-Shape"></path>
        </g>
    </g>
</svg>